<svg xmlns="http://www.w3.org/2000/svg" viewBox="0 0 233.72 202.8"><defs><style>.cls-1{fill:#7ac972;}.cls-2{fill:#fa4659;}</style></defs><g id="Layer_2" data-name="Layer 2"><g id="Layer_1-2" data-name="Layer 1"><polygon class="cls-1" points="25.08 202.79 0.08 202.79 0.08 96.8 25.08 83.8 25.08 202.79"/><polygon class="cls-1" points="59.08 202.79 34.08 202.79 34.08 79.8 59.08 66.8 59.08 202.79"/><polygon class="cls-1" points="93.08 202.79 68.08 202.79 68.08 61.8 93.08 48.8 93.08 202.79"/><polygon class="cls-1" points="127.08 202.79 102.08 202.79 102.08 43.8 110.08 39.8 127.27 30 127.08 202.79"/><polygon class="cls-2" points="163.08 202.79 138.08 202.79 138.08 29.8 163.08 38.8 163.08 202.79"/><polygon class="cls-2" points="198.08 202.79 173.08 202.79 173.08 43.8 198.08 53.8 198.08 202.79"/><polygon class="cls-1" points="0 77.8 0 86.8 109.82 29.14 127.27 20 127.27 6 110.87 14.47 0 77.8"/><polygon class="cls-2" points="138.27 20 138.27 6 185.27 0 233.27 46.8 233.72 57.23 138.27 20"/><polygon class="cls-2" points="233.27 202 208.27 202 208.27 57 233.27 67 233.27 202"/></g></g></svg>